<?xml version="1.0" encoding="UTF-8"?>
<!DOCTYPE svg PUBLIC "-//W3C//DTD SVG 1.1//EN" "http://www.w3.org/Graphics/SVG/1.1/DTD/svg11.dtd">
<!-- Creator: CorelDRAW -->
<svg xmlns="http://www.w3.org/2000/svg" xml:space="preserve" width="297mm" height="100mm" version="1.1" style="shape-rendering:geometricPrecision; text-rendering:geometricPrecision; image-rendering:optimizeQuality; fill-rule:evenodd; clip-rule:evenodd"
viewBox="0 0 29700 10000"
 xmlns:xlink="http://www.w3.org/1999/xlink"
 xmlns:xodm="http://www.corel.com/coreldraw/odm/2003"
 data-name="Camada 1">
 <defs>
  <style type="text/css">
   <![CDATA[
    .fil2 {fill:#0272C4}
    .fil0 {fill:#0088FF;fill-rule:nonzero}
    .fil1 {fill:#0F131A;fill-rule:nonzero}
   ]]>
  </style>
 </defs>
 <g id="Camada_x0020_1">
  <metadata id="CorelCorpID_0Corel-Layer"/>
  <g id="_2154154353232">
   <path class="fil0" d="M9648.34 1689.42c17.66,0 28.25,19.72 18.83,34.72l-758.04 1194.14c-11.18,17.36 -30.31,27.96 -50.91,27.96 -721.24,1.47 -1789.74,1.47 -3205.16,0 -307.22,-0.29 -522.03,98.59 -692.12,347.24 -109.17,159.49 -211.58,323.4 -306.63,491.72 -13.84,24.43 -39.73,39.43 -67.68,39.43 -545.27,-0.59 -941.07,-0.88 -1187.67,-0.88 -79.74,0 -117.11,-74.45 -77.09,-144.78 253.96,-445.81 611.48,-1071.43 1072.9,-1877.14 8.53,-15.3 26.78,-42.97 54.44,-82.69 12.66,-18.54 33.84,-29.72 56.5,-29.72l5142.63 0z"/>
   <circle class="fil0" transform="matrix(1.06444 -0.322388 0.322388 1.06444 5923.68 4604.09)" r="600.07"/>
   <path class="fil0" d="M1346.16 8292.79c-1.18,-11.77 19.13,-61.79 60.61,-150.37 56.21,-119.77 209.52,-460.52 459.94,-1022.87 399.03,-896.05 799.82,-1756.78 1180.89,-2633.41 15.3,-34.72 45.32,-52.08 89.75,-52.08 610.61,-0.59 1258.59,-0.59 1943.64,0.29 11.48,0 20.9,9.42 20.9,20.89l0 382.25c0,9.42 -6.47,17.96 -15.59,20.31 -556.17,147.14 -901.35,549.4 -1135.29,1061.14 -379.9,831.31 -744.2,1622 -1093.21,2372.09 -5.88,12.66 -18.54,20.6 -32.36,20.6l-1459.87 -1.18c-10.01,0 -18.54,-7.65 -19.41,-17.66z"/>
   <path class="fil0" d="M8350.62 4433.76c14.12,0 23.54,14.71 17.66,27.37 -100.93,221.58 -194.51,404.33 -280.73,548.22 -286.03,477.89 -691.24,830.42 -1235.92,954.61 -120.66,27.37 -303.4,40.6 -548.52,39.73 -588.54,-2.36 -984.03,-2.06 -1186.48,1.17 -82.11,1.18 -180.98,-0.28 -296.04,-4.7 -15.89,-0.59 -22.65,-20.31 -10.89,-30.61 75.92,-66.21 161.56,-118 256.9,-155.37 261.6,-102.7 462.29,-171.86 601.48,-207.46 232.48,-60.04 401.97,-108.88 508.5,-146.25 220.4,-77.4 380.49,-213.93 479.66,-409.62 98.58,-194.23 125.65,-394.03 80.92,-599.72 -1.77,-8.83 5,-17.36 13.83,-17.36l1599.63 -0.01z"/>
   <path class="fil1" d="M12528.34 4512.62c13.84,0 22.65,15.01 15.59,27.07l-209.51 363.13c-5.6,9.71 -16.19,15.6 -27.37,15.6l-1589.93 0c-14.12,0 -25.6,11.48 -25.6,25.89l0 1032.58c0,10.3 -8.24,18.54 -18.54,18.54l-379.02 0.01c-13.53,0 -24.72,-11.17 -24.42,-24.72 2.06,-687.7 1.77,-1373.35 -0.59,-2056.94 -1.18,-356.35 150.67,-614.14 552.05,-614.72 511.14,-0.87 1196.5,-0.87 2056.63,-0.59 127.42,0 228.36,-1.76 302.81,-5.29 12.36,-0.59 20.6,12.66 14.41,23.55l-208.34 361.36c-10.3,17.66 -29.13,28.54 -49.44,28.54 -773.34,-2.36 -1445.44,-1.77 -2016.33,2.05 -217.17,1.47 -236.6,145.08 -229.23,339.88 3.82,93.58 4.7,241.89 2.94,444.93 -0.28,10.6 8.25,19.13 18.83,19.13l1815.06 0z"/>
   <path class="fil1" d="M14143.87 4644.75c0.29,402.85 200.98,731.26 573.52,871.63 153.02,57.68 317.22,68.26 491.14,67.39 6.77,0 12.35,5.59 12.35,12.35l0 377.85c0,11.48 -9.12,20.9 -20.6,21.18 -307.8,7.07 -570.28,-42.66 -787.16,-148.9 -468.77,-230.11 -705.66,-689.47 -705.66,-1201.49 -0.28,-512.03 236.01,-971.38 704.78,-1201.79 216.88,-106.53 479.07,-156.55 786.88,-149.49 11.47,0 20.59,9.42 20.59,20.9l0 377.84c0.29,7.07 -5,12.36 -12.06,12.36 -173.92,-0.59 -338.12,10.01 -490.85,67.98 -372.54,140.66 -573.23,469.07 -572.93,872.21l0 -0.02z"/>
   <path class="fil1" d="M17010.92 4644.75c-0.58,447.29 -216.28,917.83 -622.96,1150.89 -273.66,157.14 -575.88,220.99 -906.35,191.56 -4.7,-0.59 -8.53,-4.7 -8.53,-9.42l0 -383.43c0,-8.24 6.78,-14.71 15.01,-14.12 134.77,6.47 300.73,0.88 430.81,-37.96 408.15,-122.12 645.91,-470.24 646.5,-898.11 0.88,-428.16 -236.01,-776.87 -643.86,-900.16 -129.77,-39.43 -295.74,-45.61 -430.52,-39.43 -8.24,0.29 -15,-6.18 -15,-14.13l1.18 -383.42c0,-5.01 3.82,-9.12 8.53,-9.42 330.75,-28.54 632.67,36.19 906.05,194.22 405.5,234.53 620.02,705.65 619.13,1152.94l0.01 -0.01z"/>
   <path class="fil1" d="M20926.16 5993.68c-494.08,-1.18 -1060.55,-1.18 -1699.69,0.28 -680.05,1.77 -1252.41,-389.61 -1377.46,-1084.37 -80.34,-448.17 19.72,-839.25 300.16,-1173.83 241,-287.21 646.79,-429.04 1026.41,-434.35 426.39,-5.59 944.3,-5.88 1554.32,-1.18 15.59,0.29 27.96,12.66 27.96,28.25l0 358.13c0,10.3 -8.24,18.54 -18.54,18.54 -924.59,-0.29 -1426.32,0.59 -1505.48,2.65 -489.36,12.65 -859.84,259.54 -960.78,753.62 -49.14,240.71 17.96,561.17 175.69,768.33 194.51,255.13 524.97,353.72 851.02,353.13 374.6,-0.59 838.08,-0.88 1390.71,-0.88 17.95,0 34.44,9.42 43.56,25.01l207.76 359.9c6.77,12.06 -1.77,26.78 -15.6,26.78l-0.04 -0.01z"/>
   <path class="fil1" d="M24396.75 3297.3l389.91 0c10.01,0 18.24,7.35 19.42,17.36 3.23,27.96 5,82.98 5.29,165.08 3.24,848.96 3.54,1305.37 0.88,1368.64 -4.7,111.53 -38.85,252.78 -102.11,423.16 -169.79,456.7 -622.96,707.12 -1092.03,716.54 -424.92,8.53 -696.82,7.65 -816,-2.06 -383.73,-31.48 -760.1,-204.52 -964.91,-539.98 -141.84,-232.47 -167.44,-484.07 -167.44,-794.53 -0.29,-528.8 0.59,-974.9 2.65,-1338.33 0,-8.53 7.06,-15.6 15.59,-15.6l380.5 0.02c10.6,0 19.13,8.53 19.13,19.13 -1.77,697.12 -1.47,1180.6 0.88,1449.85 1.47,184.21 46.49,343.11 134.48,476.72 170.67,258.66 446.7,333.99 733.61,336.35 351.06,2.65 563.82,2.65 638.86,-0.59 476.72,-19.72 784.51,-354.3 786.28,-833.96 2.65,-750.97 3.24,-1229.15 1.77,-1434.85 0,-7.06 5.89,-12.94 13.25,-12.94l-0.01 -0.01z"/>
   <path class="fil1" d="M28195.76 3324.67l0 363.72c0,8.24 -6.48,14.71 -14.72,15 -400.5,2.36 -985.79,2.95 -1755.9,2.06 -238.94,-0.29 -422.56,108.58 -426.1,356.95 -3.83,269.55 206.58,377.84 445.22,378.13 185.09,0.29 513.5,0.59 984.92,1.47 374.3,0 684.17,118 841.3,459.06 45.92,100.05 68.86,202.16 69.16,306.04 0,466.41 -337.82,785.11 -800.41,785.4 -521.15,0.29 -1148.82,0.88 -1882.72,1.46 -15.01,0 -27.37,-12.35 -27.37,-27.37l0 -360.77c0,-10.89 8.83,-19.72 19.71,-19.72 476.42,0.29 1062.61,0.29 1758.84,0.59 40.9,0 65.03,0 71.8,0.29 195.39,7.35 395.79,-74.74 428.75,-288.68 39.14,-252.48 -141.84,-452 -391.08,-450.82 -381.66,1.47 -761.56,1.18 -1140,-0.59 -264.54,-1.18 -479.65,-96.81 -645.32,-286.91 -185.1,-212.46 -200.4,-569.11 -98.29,-818.06 113.29,-276.91 412.27,-436.99 707.42,-440.23 679.46,-7.06 1289.48,-7.65 1830.64,-1.47 13.25,0.29 24.13,11.18 24.13,24.42l0.02 0.03z"/>
   <path class="fil2" d="M15461.89 7298.07c0,126.91 74.23,237.76 183.61,291.65 40.66,20.04 84.49,29.98 129.21,30.54l7.59 0c26.2,-0.29 52.66,-3.78 78.92,-10.32 22.77,-5.67 39.35,-12.36 58.2,-21.82 19.13,-9.6 33.94,-17.44 50.36,-29.64 21.63,-16.07 26.69,-20.3 43.6,-38.76 64.05,-69.95 95.94,-137.38 95.94,-242.82 0,-50.24 -12.85,-92 -28.18,-127.05 -13.36,-30.52 -38.04,-69.93 -61.85,-93.44 -56.13,-55.43 -130.97,-96.99 -213.67,-96.99 -66.08,0 -100.21,6.22 -157.3,33.36 -39.04,18.55 -64.7,41.66 -94.02,70.7 -57.28,56.7 -92.41,147.69 -92.41,234.59zm2845.87 41.88l61.8 -165.38c5.29,-13.54 24.42,-13.84 29.72,-0.59l66.51 163.9c4.11,10.3 -3.24,21.48 -14.42,21.78l-128.3 1.77c-11.18,0.29 -19.13,-10.89 -15.31,-21.48zm-4216.27 -222.17c0.29,-17.36 14.42,-31.2 31.79,-31.2l55.91 0.59c107.99,1.18 194.8,85.93 193.63,189.22l0 21.19c-1.18,103.29 -89.75,186.27 -197.74,185.09l-55.91 -0.59c-17.37,-0.29 -31.49,-14.41 -31.2,-31.79l3.54 -332.52 -0.02 0.01zm1664.38 -31.79c101.52,-14.41 196.57,64.44 212.16,175.69 15.59,111.53 -54.14,213.34 -155.66,227.46 -101.52,14.42 -196.57,-64.44 -212.16,-175.68 -15.6,-111.53 54.14,-213.34 155.66,-227.47zm4456.1 39.44c0,-16.48 13.25,-29.72 29.43,-30.02l55.32 -0.58c100.34,-0.88 182.16,73.57 183.04,165.97l0.59 50.61c0.59,92.4 -80.05,168.03 -180.1,168.91l-55.32 0.59c-16.48,0.29 -30.02,-12.94 -30.02,-29.43l-2.95 -326.05 0.01 0zm-903.19 -215.4c0,9.72 9.36,18.84 18.08,21.94 12.53,4.45 19.82,3.29 33.37,1.28 22.66,-3.37 63.33,-24.87 79.8,-40.27 7.61,-7.11 13.91,-10.98 20.48,-19.53 9.85,-12.82 28.35,-33.61 26.29,-54.36 -4.77,-48.07 -78.69,-17.75 -107.29,-0.68 -24.94,14.89 -70.73,53.74 -70.73,91.62zm-6111.7 -2.34c0,9.41 7.65,20.08 13.68,23.95 8.67,5.58 22.83,5.75 31.41,4.78 97.53,-11.1 168.19,-146.32 91.46,-146.32 -37.55,0 -64.16,17.08 -92.17,39.62 -18.23,14.66 -44.38,46.05 -44.38,77.97zm10389.42 693.75c20.21,0 38.45,1.99 54.81,-15.79 6.95,-7.57 15.82,-22.34 15.82,-35.95l0 -460.94c0,-40 3.32,-103.47 -56.5,-103.47 -27.71,0 -56.77,5.72 -64.94,40.96 -7.17,30.86 -0.98,127.44 -0.98,173.04 0,53.58 -3.15,339.23 2.19,359.98 5.3,20.55 24.39,42.17 49.6,42.17zm-8633.12 4.7l70.62 0c16.74,0 30.61,-17.8 30.61,-35.26l0 -566.78c0,-45.49 -56.26,-35.28 -94.17,-35.28 -33.29,0 -35.42,28.5 -35.32,51.73l0.01 265.76c0.03,29.02 -2.36,53.49 -2.36,84.66 0,31.19 -4.19,198.47 4.7,216.36 3.73,7.48 14.75,18.81 25.91,18.81zm9125.17 -585.58c0,33.77 -1.75,69.29 51.7,70.64 58.79,1.49 117.8,-14.09 128.24,22.41 6.12,21.37 3.28,126.08 3.59,151.63 0.18,14.68 2.47,18.64 2.45,46.94 -0.05,81.46 5.29,174.96 4.65,249.34 -0.18,19.95 2.85,28.1 14.76,37.01 13.44,10.06 71.99,8.99 87.36,1.39 11.32,-5.61 17.41,-15.89 18.08,-31.32 0.69,-15.7 -0.05,-33.54 -0.07,-49.46 -0.03,-19.92 2.48,-31.76 2.41,-49.34l-0.06 -150.57c-0.02,-19.91 2.48,-31.74 2.42,-49.32 -0.15,-33.73 -0.06,-67.46 -0.06,-101.18 0,-93.03 4.9,-80.42 122.43,-79.96 61.04,0.25 58.85,-24.92 58.85,-75.26 0,-21.23 -15.54,-36.12 -35.35,-37.6 -11.34,-0.85 -23.2,0.9 -34.64,-0.67l-287.92 -1.77c-15.61,-0.06 -20.29,2.47 -35.17,2.49 -45.29,0.06 -103.67,-10.57 -103.67,44.6zm-12006.81 0c0,33.04 -1.84,68.19 49.41,70.58 63.08,2.95 116.03,-12.69 129.29,19.02 6.24,14.94 4.93,125.46 4.93,145.58l4.72 195.19c4.73,87.38 -19.5,155.21 44.72,155.21 45.81,0 78.11,6.11 77.75,-49.32 -0.2,-31.3 -1.73,-68.11 -0.06,-98.84 2.84,-52.69 2.54,-92.85 2.36,-145.81 -0.08,-19.34 2.49,-28.71 2.39,-46.99 -0.19,-32.14 -0.04,-64.32 -0.04,-96.45 0,-92.79 6.01,-78.05 120.13,-77.55 70.81,0.3 61.15,-38.32 61.15,-82.37 0,-38.48 -53.95,-33.02 -75.35,-32.91 -15.75,0.08 -22.41,-2.06 -35.22,-2.45 -23.78,-0.71 -49.11,0.06 -73.06,0.08 -25.62,0.03 -43.89,-2.23 -70.64,-2.37l-105.96 2.34c-15.85,-0.09 -21.38,2.31 -35.19,2.48 -51.7,0.63 -101.33,-9.17 -101.33,44.58zm10575.4 -11.75l0 562.07c0,42.79 46.15,32.92 96.53,32.92 11.16,0 21.08,-2.28 27.37,-7.93 13.24,-11.88 7.94,-76.95 7.94,-104.96 0,-25.08 0,-50.17 0,-75.25 0,-23.76 -4.22,-54.33 10.22,-65.05 13.41,-9.93 46.2,-5.51 67.47,-5.51l150.68 0c61.46,0.05 51.79,-4.19 51.79,-94.07 0,-30.29 -41.1,-23.51 -56.49,-23.51l-160.1 0c-71.05,0 -58.86,1.15 -58.86,-112.89 0,-28.09 39.55,-23.51 68.28,-23.51 25.13,0 220.1,1.99 229.59,-1.13 25.05,-8.24 17.6,-51.95 17.6,-85.89 0,-17 -9.41,-30.57 -25.89,-30.57l-400.22 0c-18.44,0 -25.91,16.29 -25.91,35.28zm-9266.43 2.34l1.39 167.27c0.1,5.71 -0.55,3.83 -1.18,11.51 -5.87,71.9 20.24,220.45 -43.52,269.47 -10.93,8.41 -21.17,16.15 -35.82,20.66 -38.83,11.93 -84.75,11.73 -118.56,-8.02 -20.11,-11.75 -31.49,-23.56 -42.48,-44.58 -5.92,-11.32 -8.01,-17.71 -11.29,-31.05 -11.56,-47.09 -3.68,-91.46 -8.5,-123.21 -9.02,-59.54 4.06,-203.63 -1.6,-257.1 -5.44,-51.39 -54.53,-42.57 -93.93,-42.57 -17.12,0 -36.68,17.81 -37.74,42.26 -1.18,27.25 -2.16,49.31 -2.2,77.76 -0.02,15.13 -2.56,21.04 -2.46,37.52 0.73,129.1 -22.24,284.04 55.83,388.76 38.55,51.7 111.36,95.72 200.81,95.72 72.84,0 145.28,-14.27 196.03,-65.23 14.76,-14.81 29.84,-30.33 40.78,-48.61 37.98,-63.46 42.38,-123.05 43.26,-194.32 0.33,-26.76 5.17,-12.27 0.43,-54.34 -2.22,-19.85 1.82,-61.4 -2.06,-89.67l-2.9 -86.46c-0.16,-13.07 -2.38,-14.97 -2.54,-28.04 -0.94,-78.2 -12.15,-77.7 -82.3,-77.7 -14.32,0 -25.6,4.01 -33.64,11.08 -6.24,5.49 -15.81,18.45 -15.81,28.89zm5711.47 249.29c0,85.96 0.2,199.23 61.82,267.51 24.26,26.88 42.12,44.72 77.04,61.79 105.21,51.42 267.36,37.06 343.82,-63.51 66.93,-88.02 61.16,-190.64 61.16,-298.71 0,-24.14 2.12,-50.98 -1.35,-73.89 -3.66,-24.17 -2.3,-126.99 -5.93,-146.96 -7.72,-42.54 -48.99,-35.49 -82.18,-35.49 -57.19,0 -49.44,57.35 -49.44,94.07l-2.32 249.31c0.09,15.81 -2.36,21.44 -2.45,35.19 -0.42,65.2 -25.72,116.17 -82.55,133.9 -10.34,3.21 -17.48,4.37 -30.4,4.96l-32.92 -0.05c-42.79,-1.86 -75.41,-25.8 -91.78,-54.16 -35.36,-61.24 -15.61,-176.16 -21.91,-248.59l0.65 -174.66c0,-50.66 -63.14,-42.33 -94.17,-42.33 -19.96,0 -37.19,19.75 -37.75,46.95 -0.51,23.95 -1.11,59.73 -3.98,80.69l-5.36 163.98zm8727.31 -108.18c0,63.35 15.48,104.42 65.53,139.15 72.87,50.54 244.15,45.06 275.18,115.51 12.03,27.29 -2.93,51.06 -21.86,63.85 -44.61,30.14 -92.53,31.35 -141.98,12.79 -57.58,-21.61 -73.01,-116.37 -169.45,-74.6 -56.95,24.66 10.2,114.95 34.36,138.98 60.87,60.55 120.39,69.97 214.84,69.97 84.31,0 161.39,-35.14 203.22,-109.78 13.51,-24.11 21.11,-51.15 22.78,-78.56l0 -23.39c-2.42,-39.52 -17.13,-78.31 -44.15,-108.68 -58.93,-66.28 -200.92,-79.96 -269.28,-107.28 -54.87,-21.93 -42.36,-106.16 49.76,-106.16 56.19,0 68.58,4.3 104.13,39.44 77.36,76.49 145.42,23.75 145.42,2.89 0,-41.95 -46.89,-94.26 -80.48,-117.15 -144.25,-98.27 -388.02,-42.13 -388.02,143.02zm-16637.66 -4.71c0,70.19 14.65,106.92 64.17,142.85 60.29,43.76 196.09,43.75 253.72,85.21 81.22,58.46 -11.01,138.29 -116.4,113.92 -72.74,-16.83 -81.53,-87.98 -133.22,-87.98 -22.12,0 -49.5,1.64 -65.37,14.67 -12.77,10.47 -16.47,28.43 -11.7,48.16 4.25,17.51 24.35,47.34 36,62.85 6.45,8.6 10.55,10.94 16.81,18.49 12.59,15.19 38.38,34.69 55.62,43.22 7.54,3.73 15.76,6.97 22.78,10.16 52.2,23.72 155.53,23.25 215.11,5.57 52.01,-15.45 85.29,-38.69 116.23,-81.45 33.38,-46.12 43.53,-119.19 21.86,-173.46 -25.03,-62.64 -60.5,-83.75 -124.14,-108.83 -34.82,-13.71 -107.73,-31.9 -150.4,-42.6 -11.8,-2.96 -21.04,-4.89 -31.29,-8.71 -51.78,-19.27 -51.94,-107.91 60.93,-107.91 74.49,0 77.51,34.46 121.64,61.93 60.08,37.39 116.15,-0.85 116.15,-24.3 0,-38.97 -50.24,-92.41 -84.73,-115.27 -146.51,-97.14 -383.77,-29.09 -383.77,143.48zm6005.76 7.07c0,49.73 13.79,88.16 39.41,113.47 48.07,47.51 99.32,53.59 163.49,69.52 20.29,5.02 43.7,8.48 62.16,15.51 38.42,14.64 83.36,32.37 83.36,76.65 0,26.72 -20.66,39.4 -37.76,49.3 -39.66,22.96 -84.91,22.78 -127.39,7.48 -63.4,-22.82 -72.93,-118.83 -174.66,-76.38 -31.46,13.13 -24.91,50.59 -10.2,77.63 3.62,6.66 5.57,9.48 9.42,16.46 8.31,15.06 21.67,31.44 33.95,43.68 62.43,62.26 121.05,72.32 212.47,72.32 128,0 233.08,-82.69 233.08,-195.19 0,-51.18 -11.52,-93.91 -44.1,-127.64 -51.34,-53.11 -141.54,-73.01 -210.66,-90.58 -27.83,-7.08 -93.67,-17.32 -93.67,-56.94 0,-27.59 2.04,-39.14 31.55,-55.49 29.62,-16.42 87.92,-16.91 119.98,-1.82 34.94,16.45 55.37,69.07 121.56,69.07 17.3,0 35.65,-7.33 45.36,-15.83 15.49,-13.57 18.36,-19.24 11.49,-40.93 -28.47,-89.86 -136.84,-145.49 -228.71,-145.49 -40.81,0 -73.44,1.59 -110.7,16.41 -12.13,4.83 -24.32,10.38 -35.16,16.62 -54.02,31.02 -94.27,85.43 -94.27,162.17zm9711.38 0c0,39.86 11.95,85.18 37.03,111.16 30.39,31.49 54.89,40.58 96.25,54.38 51.26,17.08 189.39,31.74 210.81,90.46 26.04,71.44 -124,128.53 -204.65,46.82l-33.44 -37.15c-16.82,-13.58 -27.33,-21.09 -54.2,-21.09 -37.57,0 -75.94,16.52 -65.89,60.99 8.56,37.89 50.94,92 85.14,114.97 14.05,9.43 26.89,17.58 43.58,24.66 28.38,12.01 64.83,18.76 102.76,20.44l37.68 0c40.51,-1.77 80.21,-9.21 111.22,-22.15 100.19,-41.79 147.98,-161.74 103.79,-256.95 -14.64,-31.55 -33.53,-51.71 -61.37,-70.39 -46.27,-31.04 -139.39,-52.71 -194.76,-68.84 -43.98,-12.82 -75.05,-14.55 -75.05,-68.48 0,-16.91 19.08,-32.37 31.76,-38.84 31.94,-16.28 82.55,-16.98 115.95,-2.89 31.32,13.23 34.57,31.5 71.18,55.9 55.75,37.14 115.42,1.16 115.42,-23.58 0,-26.4 -34.09,-77.71 -53.57,-94.65 -9.91,-8.61 -18.64,-14.88 -29.17,-22.61 -85.73,-62.98 -245.23,-65.58 -325.16,6.12 -22.08,19.8 -30.03,26.54 -45.7,57.82 -11.48,22.93 -19.61,50.73 -19.61,83.9zm-5831.54 449.18l386.1 0c24.06,0 44.73,-20.66 44.73,-44.69 0,-49.37 3.81,-77.81 -63.56,-77.61 -19.7,0.06 -32.72,-2.4 -49.36,-2.42 -17.4,-0.03 -37.16,1.01 -54.24,0.09l-101.16 -4.8c-20.87,-0.59 -33.98,1.97 -45.06,-9.06 -9.97,-9.91 -11.37,-25.04 -9.56,-40.53 1.75,-14.96 -1.71,-37.57 0.94,-50.92 9.25,-46.78 77.57,-33.46 126.6,-33.46 36.68,0 65.94,-2.39 103.67,-2.26 48.05,0.18 49.35,-36.97 49.35,-70.65 0,-60.43 -68.41,-46.35 -131.96,-51.6 -13.41,-1.11 -30.84,-0.02 -44.69,-0.05 -11.48,-0.02 -74.88,-2.3 -84.67,-7.14 -25.34,-12.5 -18.84,-42.02 -18.84,-77.61 0,-47.09 55.61,-35.26 96.53,-35.26 24,0 178.93,2.68 193.98,-1.37 42.09,-11.36 32.51,-84.85 26.67,-96.75 -7.26,-14.77 -22.75,-24.18 -44.08,-24.18l-390.81 0c-15.21,0 -14.28,21.04 -14.2,28.15l-2.28 378.7c0,30.23 -2.35,51.85 -2.35,82.31 0,28.22 0,56.45 0,84.66 0,32.14 -5.31,56.45 28.25,56.45zm-10782.59 -616.16l0 604.4 0 0.15c0.12,3.08 3.74,8.72 5.57,10.75 3.12,3.46 5.4,4.53 10.38,6.1 14.74,4.6 76.9,-0.65 94.68,-0.56l263.71 0.02c25.89,0 89.46,6.72 89.46,-44.69 0,-42.88 7.26,-80.35 -58.85,-79.97l-245.36 -6.54c-31.52,-9.97 -23.04,-48.38 -23.04,-92.21 0,-51.15 62.39,-42.36 98.88,-42.33 18.05,0.01 30.19,-2.01 44.66,-2.44 59.48,-1.77 138.98,18.56 138.98,-51.66 0,-15.97 1.97,-32.7 -4.76,-44.63 -1.46,-2.58 -7.65,-10.7 -10.39,-13.14 -9.16,-8.21 -20.42,-11.02 -34.6,-12.47 -13.54,-1.38 -32.64,-0.32 -46.78,-0.31 -18.05,0.01 -30.18,-2 -44.65,-2.42l-70.72 0.09c-10.4,-0.57 -9.82,-2.16 -21.11,-2.44 -23.34,-0.59 -51.86,0.59 -51.86,-42.26 0,-86.46 3.33,-77.58 113,-77.61 27.77,-0.01 47.06,2.36 75.34,2.36l80.05 0c63.21,0 56.49,-47.26 56.49,-87.02 0,-14.38 -16.66,-37.63 -40.01,-37.63l-343.78 -0.05c-13.67,-0.06 -17.25,1.82 -28.18,2.41 -9.4,0.51 -21.87,-0.99 -30.7,-0.09 -8.07,0.84 -16.41,6.1 -16.41,14.19zm15717.15 21.17l0 562.07c0,23.55 9.52,37.62 32.96,37.62l395.52 0c40.53,0 32.95,-43.23 32.95,-84.66 0,-39.47 -15.04,-42.43 -54.14,-42.34 -60.96,0.15 -188.35,2.49 -242.62,0.13 -13.94,-0.6 -25.77,-9.9 -25.77,-23.64l0 -91.72c0,-29.15 36.87,-25.89 56.5,-25.87 24.42,0.03 196.18,3.02 206.94,-2.58 21.06,-10.97 14.36,-54.11 14.36,-89.13 0,-37.44 -32.23,-30.58 -54.14,-30.58 -29.44,0 -191.75,3.15 -208.37,-3.51 -22.42,-8.99 -15.29,-54.58 -15.29,-90.56 0,-35.33 31.76,-28.21 65.92,-28.21l190.7 0c72.64,0 63.56,-6.18 63.56,-91.73 0,-20.57 -12.36,-32.92 -32.96,-32.92l-388.45 0c-25.77,0 -37.67,11.89 -37.67,37.63zm-7924.49 569.12c0,40.06 44.37,30.57 94.17,30.57 50.78,0 47.06,-63.74 86.02,-116.32 15.74,-21.26 22.84,-13.03 50.53,-13.03l155.37 0c33.59,0 44.61,-14.67 76.03,58.11 32.17,74.51 21.27,71.24 126.45,71.24 14.82,0 29.17,-15.51 29.86,-28.47 0.69,-12.89 -103,-264.69 -115.97,-297.08l-86.43 -209.98c-20.84,-52.67 -29.79,-92.62 -77.93,-100.88 -35.62,-6.1 -74.53,-2.02 -96.07,15.1 -11.51,9.15 -15.49,22.16 -21.73,37.09l-155.06 381.29c-11.54,28.8 -22.58,54.92 -33.65,83.98 -5.97,15.69 -10.33,27.07 -16.46,42.34 -4.22,10.52 -15.13,34.97 -15.13,46.04zm6933.33 -569.12l0 564.41c0,11.18 2.59,15.89 8.66,21.94 5.02,5.03 12.98,10.98 21.95,10.98 51.21,0 105.95,11.13 105.95,-37.62l0 -343.36c12.94,0 16.08,6.23 28.24,23.54 42.66,60.78 83.85,125.33 125.25,187.66 7.69,11.58 14.23,20.11 22.13,31.97 14.43,21.67 27.12,40.33 42.34,61.21 8.19,11.25 12.63,19.5 21.43,30.32 27.55,33.9 55.05,52.89 108.68,45.94 34.68,-4.49 52.15,-15.41 52.15,-53.74l0 -538.55c0,-51.59 -45.79,-42.33 -94.17,-42.33 -53.58,0 -44.73,44.84 -44.73,96.42l-0.56 281.98c-4.2,11.9 -13.41,-2.26 -17.58,-7.51 -27.74,-34.88 -122,-179.76 -156.54,-231.67l-43.28 -62.61c-5.64,-7.74 -8.73,-13.3 -14.42,-20.85 -27.56,-36.54 -49.23,-55.76 -99.58,-55.76 -27.62,0 -65.92,11.19 -65.92,37.63zm-11025.06 597.33l214.23 0c40.59,0 92.97,-12.6 120.07,-25.85 38.64,-18.89 61.65,-30.42 93.94,-61.4 37.18,-35.65 66.84,-80.43 80.8,-130.94 15.25,-55.14 17.25,-139.2 1.02,-194.9 -6.54,-22.43 -11.19,-34.15 -20.37,-52.55 -17.74,-35.53 -49.58,-76.12 -81.36,-99.81 -21.72,-16.19 -43.72,-31.29 -68.98,-41.62 -31.43,-12.87 -73.68,-27.89 -118.06,-27.89l-221.29 0c-29.23,0 -29.27,35.2 -26.55,54.73 2.59,18.6 0.65,452.37 0.65,519.1 0,18.6 -6.51,61.13 25.9,61.13zm6125.82 2.36c77.28,0 233.57,5.7 296.36,-14.39 42.27,-13.51 61.77,-23.86 95.45,-48.11 37.12,-26.74 55.24,-49.13 78.59,-86.12 3.11,-4.93 5.48,-7.53 8.32,-12.85 50,-93.56 46.84,-250.8 -7.83,-332.42 -21.49,-32.09 -19.11,-27.29 -40.75,-53.37 -8.33,-10.07 -42.47,-36.91 -52.96,-43.51 -110.49,-69.47 -212.29,-48.14 -374.93,-49.01 -17.22,-0.08 -26,3.33 -33.38,13.68 -9.67,13.55 -8.87,65.82 -6.2,89.56 5.38,47.86 2.01,308.5 2.01,378.98 0,32.57 -0.17,65.06 2.24,94.19 1.21,14.64 -2.11,33.96 2.27,44.75 4.29,10.54 16.13,18.62 30.81,18.62z"/>
  </g>
 </g>
</svg>
